<svg xmlns="http://www.w3.org/2000/svg" xmlns:xlink="http://www.w3.org/1999/xlink" width="1920" zoomAndPan="magnify" viewBox="0 0 1440 809.999993" height="1080" preserveAspectRatio="xMidYMid meet" version="1.0"><defs><g/><clipPath id="562f41c305"><path d="M 322.929688 252.324219 L 325.804688 252.324219 L 325.804688 254.761719 L 322.929688 254.761719 Z M 322.929688 252.324219 " clip-rule="nonzero"/></clipPath><clipPath id="739cca2bc6"><path d="M 325.800781 253.199219 C 324.523438 255.226562 323.324219 254.851562 323.023438 254.398438 C 322.800781 253.949219 323.023438 252.75 323.398438 252.449219 C 323.773438 252.148438 325.425781 252.523438 325.425781 252.523438 " clip-rule="nonzero"/></clipPath><clipPath id="8084c04ecb"><path d="M 322.113281 251.796875 L 324.984375 251.796875 L 324.984375 254.234375 L 322.113281 254.234375 Z M 322.113281 251.796875 " clip-rule="nonzero"/></clipPath><clipPath id="8a698f8a2a"><path d="M 324.976562 252.675781 C 323.699219 254.625 322.5 254.324219 322.273438 253.875 C 321.976562 253.425781 322.199219 252.226562 322.648438 251.925781 C 323.023438 251.625 324.601562 252 324.601562 252 " clip-rule="nonzero"/></clipPath><clipPath id="e918093927"><path d="M 322.929688 250.1875 L 325.804688 250.1875 L 325.804688 252.628906 L 322.929688 252.628906 Z M 322.929688 250.1875 " clip-rule="nonzero"/></clipPath><clipPath id="75656435df"><path d="M 325.800781 251.023438 C 324.523438 253.050781 323.324219 252.675781 323.023438 252.300781 C 322.800781 251.851562 323.023438 250.648438 323.398438 250.351562 C 323.773438 249.976562 325.425781 250.425781 325.425781 250.425781 " clip-rule="nonzero"/></clipPath><clipPath id="1f53d1a471"><path d="M 319.890625 248.414062 L 328.65625 248.414062 L 328.65625 258.308594 L 319.890625 258.308594 Z M 319.890625 248.414062 " clip-rule="nonzero"/></clipPath><clipPath id="40a4fab1b3"><path d="M 323.773438 252.898438 C 319.949219 251.324219 319.800781 250.351562 320.175781 249.824219 C 320.699219 249 323.550781 248.550781 324.675781 248.476562 C 325.425781 248.398438 326.023438 248.398438 326.550781 248.773438 C 327.300781 249.375 328.050781 251.023438 328.351562 252.375 C 328.726562 253.800781 328.800781 256.351562 328.273438 257.324219 C 327.976562 257.851562 327.148438 258.375 326.925781 258.300781 C 326.699219 258.148438 327.375 256.425781 327.148438 256.125 C 326.851562 255.898438 326.101562 256.5 325.726562 256.351562 C 325.351562 256.273438 324.824219 255.824219 324.75 255.375 C 324.675781 254.925781 325.351562 253.800781 325.273438 253.726562 C 325.199219 253.726562 324.675781 254.476562 324.75 254.550781 C 324.824219 254.625 326.175781 253.425781 326.699219 253.5 C 327.074219 253.574219 327.601562 254.175781 327.675781 254.550781 C 327.75 255 327.375 255.976562 327 256.199219 C 326.625 256.5 325.949219 256.5 325.574219 256.273438 C 325.125 256.050781 324.675781 255.148438 324.75 254.699219 C 324.75 254.25 325.199219 253.726562 325.574219 253.574219 C 325.949219 253.425781 326.625 253.425781 327 253.648438 C 327.300781 253.875 327.675781 254.476562 327.675781 254.851562 C 327.75 255.300781 327.449219 255.976562 327.148438 256.125 C 326.625 256.351562 325.199219 256.125 324.898438 255.75 C 324.601562 255.300781 325.199219 253.726562 325.273438 253.800781 C 325.425781 253.800781 325.425781 256.273438 325.5 256.273438 C 325.5 256.273438 325.648438 254.101562 325.5 253.199219 C 325.351562 252.601562 325.273438 251.851562 324.824219 251.625 C 324.148438 251.25 322.199219 252.375 321.300781 252.226562 C 320.699219 252.074219 320.023438 251.625 319.949219 251.175781 C 319.800781 250.648438 320.398438 249.523438 321 249.226562 C 321.976562 248.851562 324.824219 249.75 325.5 250.5 C 325.875 250.949219 325.875 251.851562 325.648438 252.226562 C 325.351562 252.675781 323.773438 252.898438 323.773438 252.898438 " clip-rule="nonzero"/></clipPath><clipPath id="f9fea18f30"><path d="M 321.589844 535.671875 L 324.460938 535.671875 L 324.460938 538.144531 L 321.589844 538.144531 Z M 321.589844 535.671875 " clip-rule="nonzero"/></clipPath><clipPath id="8e3c261a18"><path d="M 324.449219 536.550781 C 323.175781 538.574219 321.976562 538.199219 321.75 537.824219 C 321.449219 537.375 321.675781 536.175781 322.050781 535.800781 C 322.5 535.5 324.074219 535.949219 324.074219 535.949219 " clip-rule="nonzero"/></clipPath><clipPath id="09040cd690"><path d="M 321.355469 535.671875 L 324.160156 535.671875 L 324.160156 538.144531 L 321.355469 538.144531 Z M 321.355469 535.671875 " clip-rule="nonzero"/></clipPath><clipPath id="bed31ae7f3"><path d="M 324.148438 536.550781 C 322.875 538.574219 321.75 538.199219 321.449219 537.824219 C 321.226562 537.375 321.449219 536.175781 321.824219 535.800781 C 322.199219 535.5 323.773438 535.949219 323.773438 535.949219 " clip-rule="nonzero"/></clipPath><clipPath id="a18ae7933c"><path d="M 321.671875 535.019531 L 324.777344 535.019531 L 324.777344 538.191406 L 321.671875 538.191406 Z M 321.671875 535.019531 " clip-rule="nonzero"/></clipPath><clipPath id="cf314e8e98"><path d="M 322.199219 535.425781 C 324.675781 535.726562 324.824219 536.476562 324.75 536.851562 C 324.601562 537.226562 324.148438 537.75 323.773438 537.898438 C 323.398438 538.050781 322.726562 537.976562 322.425781 537.675781 C 322.050781 537.449219 321.75 536.851562 321.75 536.476562 C 321.75 536.023438 322.125 535.425781 322.5 535.199219 C 322.800781 534.976562 323.476562 534.976562 323.851562 535.125 C 324.226562 535.273438 324.675781 535.800781 324.75 536.175781 C 324.824219 536.699219 324.523438 537.523438 324.074219 537.824219 C 323.625 538.199219 322.425781 538.273438 322.050781 537.976562 C 321.675781 537.675781 321.675781 535.949219 321.675781 535.949219 " clip-rule="nonzero"/></clipPath><clipPath id="dcf739da39"><path d="M 322.078125 533.824219 L 327.210938 533.824219 L 327.210938 539 L 322.078125 539 Z M 322.078125 533.824219 " clip-rule="nonzero"/></clipPath><clipPath id="1ebf647eea"><path d="M 324.675781 534.75 C 325.875 538.273438 325.199219 538.800781 324.75 538.949219 C 324.300781 539.023438 323.699219 538.800781 323.398438 538.425781 C 323.101562 538.050781 323.023438 537.074219 323.101562 536.398438 C 323.175781 535.574219 323.550781 534.300781 324.148438 534 C 324.75 533.625 326.25 534 326.699219 534.449219 C 327.074219 534.75 327.074219 535.351562 327.148438 535.875 C 327.148438 536.476562 327.148438 537.449219 326.851562 537.898438 C 326.625 538.273438 326.023438 538.574219 325.648438 538.5 C 325.125 538.5 324.375 537.976562 324.226562 537.523438 C 324.074219 537.074219 324.449219 536.101562 324.824219 535.800781 C 325.125 535.5 325.875 535.425781 326.25 535.648438 C 326.625 535.875 327.226562 536.699219 327.148438 537.148438 C 327.074219 537.675781 326.398438 538.351562 325.875 538.5 C 325.5 538.574219 324.824219 538.351562 324.601562 538.050781 C 324.300781 537.675781 324.148438 536.699219 324.375 536.25 C 324.601562 535.875 325.199219 535.574219 325.574219 535.5 C 326.023438 535.5 326.625 535.800781 326.851562 536.101562 C 327.148438 536.476562 327.300781 537.226562 327.074219 537.601562 C 326.773438 538.050781 325.425781 538.574219 324.898438 538.351562 C 324.375 538.050781 323.925781 535.574219 324.148438 535.5 C 324.300781 535.351562 326.023438 537.148438 325.949219 537.75 C 325.949219 538.273438 325.199219 538.800781 324.75 538.949219 C 324.300781 539.023438 323.773438 538.800781 323.398438 538.425781 C 322.800781 537.898438 321.898438 536.023438 322.125 535.273438 C 322.199219 534.75 322.949219 534.226562 323.398438 534.226562 C 323.851562 534.148438 324.675781 534.75 324.675781 534.75 " clip-rule="nonzero"/></clipPath><clipPath id="eeb228d945"><path d="M 183.964844 389.273438 L 186.835938 389.273438 L 186.835938 391.710938 L 183.964844 391.710938 Z M 183.964844 389.273438 " clip-rule="nonzero"/></clipPath><clipPath id="b41263adb7"><path d="M 186.824219 390.148438 C 185.550781 392.175781 184.351562 391.800781 184.125 391.351562 C 183.824219 390.976562 184.050781 389.699219 184.5 389.398438 C 184.875 389.101562 186.449219 389.550781 186.449219 389.550781 " clip-rule="nonzero"/></clipPath><clipPath id="e7f2189ad1"><path d="M 182.046875 388.148438 L 187.753906 388.148438 L 187.753906 391.890625 L 182.046875 391.890625 Z M 182.046875 388.148438 " clip-rule="nonzero"/></clipPath><clipPath id="083eb7c838"><path d="M 184.875 389.023438 C 187.800781 389.851562 187.800781 390.523438 187.648438 390.898438 C 187.425781 391.273438 186.675781 391.800781 186.226562 391.875 C 185.925781 391.875 185.476562 391.800781 185.25 391.5 C 184.949219 391.050781 184.875 389.773438 185.175781 389.324219 C 185.398438 389.023438 186.074219 388.800781 186.449219 388.875 C 186.898438 388.949219 187.5 389.324219 187.574219 389.699219 C 187.726562 390.226562 187.273438 391.5 186.824219 391.726562 C 186.449219 391.949219 185.773438 391.875 185.398438 391.574219 C 185.101562 391.351562 184.726562 390.75 184.726562 390.375 C 184.726562 389.925781 185.023438 389.324219 185.398438 389.101562 C 185.699219 388.875 186.375 388.800781 186.75 388.949219 C 187.199219 389.175781 187.726562 390.523438 187.726562 390.523438 C 187.800781 390.523438 187.199219 389.25 187.199219 389.25 C 187.199219 389.25 187.800781 390.148438 187.726562 390.523438 C 187.648438 390.976562 187.199219 391.648438 186.601562 391.800781 C 185.625 392.101562 182.476562 391.050781 182.101562 390.226562 C 181.875 389.699219 182.550781 388.351562 183.074219 388.199219 C 183.523438 388.050781 184.875 389.023438 184.875 389.023438 " clip-rule="nonzero"/></clipPath><clipPath id="b140cee084"><path d="M 184.339844 389.648438 L 187.210938 389.648438 L 187.210938 392.085938 L 184.339844 392.085938 Z M 184.339844 389.648438 " clip-rule="nonzero"/></clipPath><clipPath id="6fa4f3b477"><path d="M 187.199219 390.523438 C 185.925781 392.550781 184.726562 392.175781 184.5 391.726562 C 184.199219 391.273438 184.425781 390.074219 184.800781 389.773438 C 185.25 389.476562 186.824219 389.925781 186.824219 389.925781 " clip-rule="nonzero"/></clipPath><clipPath id="a9a0b78f55"><path d="M 184.480469 389.648438 L 187.285156 389.648438 L 187.285156 392.085938 L 184.480469 392.085938 Z M 184.480469 389.648438 " clip-rule="nonzero"/></clipPath><clipPath id="d5a01187eb"><path d="M 187.273438 390.523438 C 186.074219 392.550781 184.875 392.175781 184.574219 391.726562 C 184.351562 391.273438 184.574219 390.074219 184.949219 389.773438 C 185.324219 389.476562 186.976562 389.925781 186.976562 389.925781 " clip-rule="nonzero"/></clipPath><clipPath id="5b0d9d1dde"><path d="M 184.328125 389.453125 L 187.375 389.453125 L 187.375 392.574219 L 184.328125 392.574219 Z M 184.328125 389.453125 " clip-rule="nonzero"/></clipPath><clipPath id="c68b550ee7"><path d="M 187.351562 391.050781 C 186.375 392.550781 185.699219 392.625 185.324219 392.476562 C 184.949219 392.324219 184.5 391.800781 184.425781 391.425781 C 184.351562 390.976562 184.5 390.375 184.800781 390.074219 C 185.101562 389.773438 185.699219 389.550781 186.148438 389.625 C 186.523438 389.699219 187.050781 390.074219 187.273438 390.449219 C 187.425781 390.824219 187.351562 391.5 187.199219 391.875 C 186.976562 392.175781 186.375 392.625 185.925781 392.550781 C 185.476562 392.550781 184.425781 391.574219 184.351562 391.050781 C 184.351562 390.601562 185.101562 389.550781 185.550781 389.476562 C 186.074219 389.398438 187.351562 390.824219 187.351562 390.824219 " clip-rule="nonzero"/></clipPath><clipPath id="19e7304939"><path d="M 184.480469 389.871094 L 187.285156 389.871094 L 187.285156 392.308594 L 184.480469 392.308594 Z M 184.480469 389.871094 " clip-rule="nonzero"/></clipPath><clipPath id="eb8a0f69e3"><path d="M 187.273438 390.75 C 186.074219 392.773438 184.875 392.398438 184.574219 391.949219 C 184.351562 391.574219 184.574219 390.300781 184.949219 390 C 185.324219 389.699219 186.976562 390.148438 186.976562 390.148438 " clip-rule="nonzero"/></clipPath><clipPath id="074d4da940"><path d="M 243.363281 392.046875 L 246.234375 392.046875 L 246.234375 394.484375 L 243.363281 394.484375 Z M 243.363281 392.046875 " clip-rule="nonzero"/></clipPath><clipPath id="283a2e9c84"><path d="M 246.226562 392.925781 C 244.949219 394.949219 243.75 394.574219 243.523438 394.125 C 243.226562 393.675781 243.449219 392.476562 243.898438 392.175781 C 244.273438 391.875 245.851562 392.324219 245.851562 392.324219 " clip-rule="nonzero"/></clipPath><clipPath id="969b994156"><path d="M 243.65625 392.796875 L 246.460938 392.796875 L 246.460938 395.203125 L 243.65625 395.203125 Z M 243.65625 392.796875 " clip-rule="nonzero"/></clipPath><clipPath id="d8d17da679"><path d="M 246.449219 393.601562 C 245.175781 395.625 244.050781 395.25 243.75 394.875 C 243.523438 394.425781 243.75 393.226562 244.125 392.925781 C 244.5 392.625 246.074219 393 246.074219 393 " clip-rule="nonzero"/></clipPath><clipPath id="f068a66f27"><path d="M 214.105469 351.847656 L 216.976562 351.847656 L 216.976562 354.285156 L 214.105469 354.285156 Z M 214.105469 351.847656 " clip-rule="nonzero"/></clipPath><clipPath id="fe7c0f23d7"><path d="M 216.976562 352.726562 C 215.699219 354.75 214.5 354.375 214.199219 353.925781 C 213.976562 353.476562 214.199219 352.273438 214.574219 351.976562 C 214.949219 351.675781 216.601562 352.125 216.601562 352.125 " clip-rule="nonzero"/></clipPath><clipPath id="0b979aecc2"><path d="M 213.878906 351.246094 L 216.6875 351.246094 L 216.6875 353.683594 L 213.878906 353.683594 Z M 213.878906 351.246094 " clip-rule="nonzero"/></clipPath><clipPath id="ecbd65603e"><path d="M 216.675781 352.125 C 215.476562 354.148438 214.273438 353.773438 213.976562 353.324219 C 213.75 352.875 213.976562 351.675781 214.351562 351.375 C 214.726562 351.074219 216.375 351.523438 216.375 351.523438 " clip-rule="nonzero"/></clipPath><clipPath id="3aa027b44a"><path d="M 213.878906 351.023438 L 216.6875 351.023438 L 216.6875 353.460938 L 213.878906 353.460938 Z M 213.878906 351.023438 " clip-rule="nonzero"/></clipPath><clipPath id="7b89b22d10"><path d="M 216.675781 351.898438 C 215.476562 353.925781 214.273438 353.550781 213.976562 353.101562 C 213.75 352.648438 213.976562 351.449219 214.351562 351.148438 C 214.726562 350.851562 216.375 351.226562 216.375 351.226562 " clip-rule="nonzero"/></clipPath><clipPath id="ef68e97cef"><path d="M 214.253906 350.796875 L 217.0625 350.796875 L 217.0625 353.203125 L 214.253906 353.203125 Z M 214.253906 350.796875 " clip-rule="nonzero"/></clipPath><clipPath id="17aacec1a8"><path d="M 217.050781 351.601562 C 215.773438 353.625 214.648438 353.25 214.351562 352.875 C 214.125 352.425781 214.351562 351.226562 214.726562 350.925781 C 215.101562 350.625 216.675781 351 216.675781 351 " clip-rule="nonzero"/></clipPath><clipPath id="99f6062dd5"><path d="M 214.5625 351.246094 L 217.4375 351.246094 L 217.4375 353.683594 L 214.5625 353.683594 Z M 214.5625 351.246094 " clip-rule="nonzero"/></clipPath><clipPath id="cc8197bb0f"><path d="M 217.425781 352.125 C 216.148438 354.148438 214.949219 353.773438 214.726562 353.324219 C 214.425781 352.875 214.648438 351.675781 215.101562 351.375 C 215.476562 351.074219 217.050781 351.523438 217.050781 351.523438 " clip-rule="nonzero"/></clipPath><clipPath id="3778f5e34a"><path d="M 215.304688 351.699219 L 218.179688 351.699219 L 218.179688 354.167969 L 215.304688 354.167969 Z M 215.304688 351.699219 " clip-rule="nonzero"/></clipPath><clipPath id="002dab26b4"><path d="M 218.175781 352.574219 C 216.898438 354.601562 215.699219 354.226562 215.398438 353.851562 C 215.175781 353.398438 215.398438 352.199219 215.773438 351.824219 C 216.148438 351.523438 217.800781 351.976562 217.800781 351.976562 " clip-rule="nonzero"/></clipPath><clipPath id="c3791a6f1e"><path d="M 182.90625 388.898438 L 185.777344 388.898438 L 185.777344 391.367188 L 182.90625 391.367188 Z M 182.90625 388.898438 " clip-rule="nonzero"/></clipPath><clipPath id="6349df55b0"><path d="M 185.773438 389.773438 C 184.5 391.800781 183.300781 391.425781 183 391.050781 C 182.773438 390.601562 183 389.398438 183.375 389.023438 C 183.75 388.726562 185.398438 389.175781 185.398438 389.175781 " clip-rule="nonzero"/></clipPath><clipPath id="711f2c6b53"><path d="M 185.539062 388.070312 L 188.410156 388.070312 L 188.410156 390.511719 L 185.539062 390.511719 Z M 185.539062 388.070312 " clip-rule="nonzero"/></clipPath><clipPath id="a3d68e8b83"><path d="M 188.398438 388.949219 C 187.125 390.976562 185.925781 390.601562 185.699219 390.148438 C 185.398438 389.773438 185.625 388.5 186 388.199219 C 186.449219 387.898438 188.023438 388.351562 188.023438 388.351562 " clip-rule="nonzero"/></clipPath></defs><g fill="#405a94" fill-opacity="1"><g transform="translate(476.468838, 446.199929)"><g><path d="M 14.332031 -122.355469 L 14.332031 0 L 120.085938 0 L 120.085938 -9.4375 L 23.773438 -9.4375 L 23.773438 -122.355469 Z M 14.332031 -122.355469 "/></g></g></g><g fill="#405a94" fill-opacity="1"><g transform="translate(610.887623, 446.218591)"><g><path d="M 70.722656 -47.847656 L 25.320312 -122.234375 L 14.320312 -122.234375 L 66.007812 -37.542969 L 66.007812 0 L 75.613281 0 L 75.613281 -37.542969 L 127.300781 -122.234375 L 116.296875 -122.234375 Z M 70.722656 -47.847656 "/></g></g></g><g fill="#7889b3" fill-opacity="1"><g transform="translate(769.540696, 446.218591)"><g><path d="M 119.964844 -89.230469 C 119.964844 -107.394531 105.121094 -122.234375 86.960938 -122.234375 L 14.320312 -122.234375 L 14.320312 0 L 86.960938 0 C 105.121094 0 119.964844 -14.667969 119.964844 -32.828125 C 119.964844 -44.703125 113.503906 -55.179688 104.074219 -61.117188 C 113.503906 -66.878906 119.964844 -77.359375 119.964844 -89.230469 Z M 110.535156 -32.828125 C 110.535156 -19.90625 99.882812 -9.429688 86.960938 -9.429688 L 23.75 -9.429688 L 23.75 -56.226562 L 86.960938 -56.226562 C 99.882812 -56.226562 110.535156 -45.75 110.535156 -32.828125 Z M 23.75 -65.832031 L 23.75 -112.632812 L 86.960938 -112.632812 C 99.882812 -112.632812 110.535156 -102.152344 110.535156 -89.230469 C 110.535156 -76.308594 99.882812 -65.832031 86.960938 -65.832031 Z M 23.75 -65.832031 "/></g></g></g><g fill="#7889b3" fill-opacity="1"><g transform="translate(920.853176, 446.218591)"><g><path d="M 125.554688 0 L 77.359375 -56.226562 L 86.960938 -56.226562 C 105.121094 -56.226562 119.964844 -71.070312 119.964844 -89.230469 C 119.964844 -107.394531 105.121094 -122.234375 86.960938 -122.234375 L 14.320312 -122.234375 L 14.320312 0 L 23.75 0 L 23.75 -56.226562 L 64.960938 -56.226562 L 112.980469 0 Z M 23.75 -112.632812 L 86.960938 -112.632812 C 99.882812 -112.632812 110.535156 -102.152344 110.535156 -89.230469 C 110.535156 -76.308594 99.882812 -65.832031 86.960938 -65.832031 L 23.75 -65.832031 Z M 23.75 -112.632812 "/></g></g></g><g fill="#7889b3" fill-opacity="1"><g transform="translate(1077.584472, 446.702489)"><g><path d="M 23.75 0 L 23.75 -122.234375 L 14.320312 -122.234375 L 14.320312 0 Z M 23.75 0 "/></g></g></g><g fill="#7889b3" fill-opacity="1"><g transform="translate(1132.681365, 446.218591)"><g><path d="M 47.148438 -112.632812 L 86.960938 -112.632812 C 99.882812 -112.632812 110.535156 -102.152344 110.535156 -89.230469 L 119.964844 -89.230469 C 119.964844 -107.394531 105.121094 -122.234375 86.960938 -122.234375 L 47.148438 -122.234375 C 28.988281 -122.234375 14.320312 -107.394531 14.320312 -89.230469 C 14.320312 -71.070312 28.988281 -56.226562 47.148438 -56.226562 L 86.960938 -56.226562 C 99.882812 -56.226562 110.535156 -45.75 110.535156 -32.828125 C 110.535156 -19.90625 99.882812 -9.429688 86.960938 -9.429688 L 47.148438 -9.429688 C 34.226562 -9.429688 23.75 -19.90625 23.75 -32.828125 L 14.320312 -32.828125 C 14.320312 -14.667969 28.988281 0 47.148438 0 L 86.960938 0 C 105.121094 0 119.964844 -14.667969 119.964844 -32.828125 C 119.964844 -50.988281 105.121094 -65.832031 86.960938 -65.832031 L 47.148438 -65.832031 C 34.226562 -65.832031 23.75 -76.308594 23.75 -89.230469 C 23.75 -102.152344 34.226562 -112.632812 47.148438 -112.632812 Z M 47.148438 -112.632812 "/></g></g></g><path stroke-linecap="butt" transform="matrix(0, -0.75, 0.75, 0, 392.015876, 499.420195)" fill="none" stroke-linejoin="miter" d="M -0.00224017 4.999665 L 281.018607 4.999665 " stroke="#405a94" stroke-width="10" stroke-opacity="1" stroke-miterlimit="4"/><path stroke-linecap="butt" transform="matrix(0, -0.75, 0.75, 0, 323.959852, 545.130569)" fill="none" stroke-linejoin="miter" d="M 0.00221643 5.001447 L 400.861612 5.001447 " stroke="#405a94" stroke-width="10" stroke-opacity="1" stroke-miterlimit="4"/><path stroke-linecap="butt" transform="matrix(0.75, 0, 0, 0.75, 135.382924, 244.365315)" fill="none" stroke-linejoin="miter" d="M 4.999851 372.163974 L 4.999851 29.002498 C 4.999851 15.747289 15.744644 5.002497 28.999853 5.002497 L 228.702988 5.002497 C 241.958197 5.002497 252.702989 15.747289 252.702989 29.002498 L 252.702989 372.163974 C 252.702989 385.419183 241.958197 396.163975 228.702988 396.163975 L 28.999853 396.163975 C 15.744644 396.163975 4.999851 385.419183 4.999851 372.163974 Z M 4.999851 372.163974 " stroke="#405a94" stroke-width="10" stroke-opacity="1" stroke-miterlimit="4"/><path stroke-linecap="butt" transform="matrix(0.75, 0, 0, 0.75, 185.175436, 537.739673)" fill="none" stroke-linejoin="miter" d="M 0.000460192 4.998145 L 190.047345 4.998145 " stroke="#405a94" stroke-width="10" stroke-opacity="1" stroke-miterlimit="4"/><path stroke-linecap="butt" transform="matrix(0.75, 0.000000000000000182, -0.000000000000000182, 0.75, 152.097889, 244.484905)" fill="none" stroke-linejoin="miter" d="M -0.000310294 5.499294 L 234.150743 5.499294 " stroke="#405a94" stroke-width="11" stroke-opacity="1" stroke-miterlimit="4"/><g clip-path="url(#562f41c305)"><g clip-path="url(#739cca2bc6)"><path fill="#405a94" d="M 320.023438 249.449219 L 328.808594 249.449219 L 328.808594 258 L 320.023438 258 Z M 320.023438 249.449219 " fill-opacity="1" fill-rule="nonzero"/></g></g><g clip-path="url(#8084c04ecb)"><g clip-path="url(#8a698f8a2a)"><path fill="#405a94" d="M 319.273438 248.925781 L 328.058594 248.925781 L 328.058594 257.476562 L 319.273438 257.476562 Z M 319.273438 248.925781 " fill-opacity="1" fill-rule="nonzero"/></g></g><g clip-path="url(#e918093927)"><g clip-path="url(#75656435df)"><path fill="#405a94" d="M 320.023438 247.351562 L 328.808594 247.351562 L 328.808594 255.898438 L 320.023438 255.898438 Z M 320.023438 247.351562 " fill-opacity="1" fill-rule="nonzero"/></g></g><g clip-path="url(#1f53d1a471)"><g clip-path="url(#40a4fab1b3)"><path fill="#405a94" d="M 316.949219 245.476562 L 331.425781 245.476562 L 331.425781 261.308594 L 316.949219 261.308594 Z M 316.949219 245.476562 " fill-opacity="1" fill-rule="nonzero"/></g></g><g clip-path="url(#f9fea18f30)"><g clip-path="url(#8e3c261a18)"><path fill="#405a94" d="M 318.75 532.800781 L 327.535156 532.800781 L 327.535156 541.351562 L 318.75 541.351562 Z M 318.75 532.800781 " fill-opacity="1" fill-rule="nonzero"/></g></g><g clip-path="url(#09040cd690)"><g clip-path="url(#bed31ae7f3)"><path fill="#405a94" d="M 318.449219 532.800781 L 327.234375 532.800781 L 327.234375 541.351562 L 318.449219 541.351562 Z M 318.449219 532.800781 " fill-opacity="1" fill-rule="nonzero"/></g></g><g clip-path="url(#a18ae7933c)"><g clip-path="url(#cf314e8e98)"><path fill="#405a94" d="M 318.675781 532.125 L 327.738281 532.125 L 327.738281 541.050781 L 318.675781 541.050781 Z M 318.675781 532.125 " fill-opacity="1" fill-rule="nonzero"/></g></g><g clip-path="url(#dcf739da39)"><g clip-path="url(#1ebf647eea)"><path fill="#405a94" d="M 319.125 531 L 330.246094 531 L 330.246094 541.949219 L 319.125 541.949219 Z M 319.125 531 " fill-opacity="1" fill-rule="nonzero"/></g></g><path stroke-linecap="butt" transform="matrix(0.75, 0, 0, 0.75, 230.624512, 517.453938)" fill="none" stroke-linejoin="miter" d="M 0.000650374 4.498916 L 97.490239 4.498916 " stroke="#405a94" stroke-width="9" stroke-opacity="1" stroke-miterlimit="4"/><path stroke-linecap="butt" transform="matrix(0, 0.75, -0.75, 0, 303.740849, 447.712653)" fill="none" stroke-linejoin="miter" d="M -0.00228797 4.498216 L 97.492509 4.498216 " stroke="#405a94" stroke-width="9" stroke-opacity="1" stroke-miterlimit="4"/><path stroke-linecap="butt" transform="matrix(0, 0.75, -0.75, 0, 185.170267, 247.355194)" fill="none" stroke-linejoin="miter" d="M 0.000366392 4.497856 L 193.187876 4.497856 " stroke="#405a94" stroke-width="9" stroke-opacity="1" stroke-miterlimit="4"/><path stroke-linecap="butt" transform="matrix(0, 0.75, -0.75, 0, 251.789466, 249.918406)" fill="none" stroke-linejoin="miter" d="M -0.000582769 4.500538 L 193.186927 4.500538 " stroke="#405a94" stroke-width="9" stroke-opacity="1" stroke-miterlimit="4"/><path stroke-linecap="butt" transform="matrix(0.479761, 0.57648, -0.57648, 0.479761, 217.544381, 352.821681)" fill="none" stroke-linejoin="miter" d="M -0.000993693 4.50091 L 65.335843 4.498133 " stroke="#405a94" stroke-width="9" stroke-opacity="1" stroke-miterlimit="4"/><path stroke-linecap="butt" transform="matrix(0.499523, -0.559443, 0.559443, 0.499523, 181.799323, 387.741065)" fill="none" stroke-linejoin="miter" d="M 0.000268861 4.499025 L 65.33517 4.499803 " stroke="#405a94" stroke-width="9" stroke-opacity="1" stroke-miterlimit="4"/><g clip-path="url(#eeb228d945)"><g clip-path="url(#b41263adb7)"><path fill="#405a94" d="M 181.125 386.398438 L 189.910156 386.398438 L 189.910156 394.949219 L 181.125 394.949219 Z M 181.125 386.398438 " fill-opacity="1" fill-rule="nonzero"/></g></g><g clip-path="url(#e7f2189ad1)"><g clip-path="url(#083eb7c838)"><path fill="#405a94" d="M 179.101562 385.199219 L 190.738281 385.199219 L 190.738281 394.875 L 179.101562 394.875 Z M 179.101562 385.199219 " fill-opacity="1" fill-rule="nonzero"/></g></g><g clip-path="url(#b140cee084)"><g clip-path="url(#6fa4f3b477)"><path fill="#405a94" d="M 181.5 386.773438 L 190.285156 386.773438 L 190.285156 395.324219 L 181.5 395.324219 Z M 181.5 386.773438 " fill-opacity="1" fill-rule="nonzero"/></g></g><g clip-path="url(#a9a0b78f55)"><g clip-path="url(#d5a01187eb)"><path fill="#405a94" d="M 181.574219 386.773438 L 190.359375 386.773438 L 190.359375 395.324219 L 181.574219 395.324219 Z M 181.574219 386.773438 " fill-opacity="1" fill-rule="nonzero"/></g></g><g clip-path="url(#5b0d9d1dde)"><g clip-path="url(#c68b550ee7)"><path fill="#405a94" d="M 181.351562 386.476562 L 190.425781 386.476562 L 190.425781 395.621094 L 181.351562 395.621094 Z M 181.351562 386.476562 " fill-opacity="1" fill-rule="nonzero"/></g></g><g clip-path="url(#19e7304939)"><g clip-path="url(#eb8a0f69e3)"><path fill="#405a94" d="M 181.574219 387 L 190.359375 387 L 190.359375 395.550781 L 181.574219 395.550781 Z M 181.574219 387 " fill-opacity="1" fill-rule="nonzero"/></g></g><g clip-path="url(#074d4da940)"><g clip-path="url(#283a2e9c84)"><path fill="#405a94" d="M 240.523438 389.175781 L 249.308594 389.175781 L 249.308594 397.726562 L 240.523438 397.726562 Z M 240.523438 389.175781 " fill-opacity="1" fill-rule="nonzero"/></g></g><g clip-path="url(#969b994156)"><g clip-path="url(#d8d17da679)"><path fill="#405a94" d="M 240.75 389.925781 L 249.535156 389.925781 L 249.535156 398.476562 L 240.75 398.476562 Z M 240.75 389.925781 " fill-opacity="1" fill-rule="nonzero"/></g></g><g clip-path="url(#f068a66f27)"><g clip-path="url(#fe7c0f23d7)"><path fill="#405a94" d="M 211.199219 348.976562 L 219.984375 348.976562 L 219.984375 357.523438 L 211.199219 357.523438 Z M 211.199219 348.976562 " fill-opacity="1" fill-rule="nonzero"/></g></g><g clip-path="url(#0b979aecc2)"><g clip-path="url(#ecbd65603e)"><path fill="#405a94" d="M 210.976562 348.375 L 219.757812 348.375 L 219.757812 356.925781 L 210.976562 356.925781 Z M 210.976562 348.375 " fill-opacity="1" fill-rule="nonzero"/></g></g><g clip-path="url(#3aa027b44a)"><g clip-path="url(#7b89b22d10)"><path fill="#405a94" d="M 210.976562 348.148438 L 219.757812 348.148438 L 219.757812 356.699219 L 210.976562 356.699219 Z M 210.976562 348.148438 " fill-opacity="1" fill-rule="nonzero"/></g></g><g clip-path="url(#ef68e97cef)"><g clip-path="url(#17aacec1a8)"><path fill="#405a94" d="M 211.351562 347.925781 L 220.132812 347.925781 L 220.132812 356.476562 L 211.351562 356.476562 Z M 211.351562 347.925781 " fill-opacity="1" fill-rule="nonzero"/></g></g><g clip-path="url(#99f6062dd5)"><g clip-path="url(#cc8197bb0f)"><path fill="#405a94" d="M 211.726562 348.375 L 220.507812 348.375 L 220.507812 356.925781 L 211.726562 356.925781 Z M 211.726562 348.375 " fill-opacity="1" fill-rule="nonzero"/></g></g><g clip-path="url(#3778f5e34a)"><g clip-path="url(#002dab26b4)"><path fill="#405a94" d="M 212.398438 348.824219 L 221.183594 348.824219 L 221.183594 357.375 L 212.398438 357.375 Z M 212.398438 348.824219 " fill-opacity="1" fill-rule="nonzero"/></g></g><g clip-path="url(#c3791a6f1e)"><g clip-path="url(#6349df55b0)"><path fill="#405a94" d="M 180 386.023438 L 188.785156 386.023438 L 188.785156 394.574219 L 180 394.574219 Z M 180 386.023438 " fill-opacity="1" fill-rule="nonzero"/></g></g><g clip-path="url(#711f2c6b53)"><g clip-path="url(#a3d68e8b83)"><path fill="#405a94" d="M 182.699219 385.199219 L 191.484375 385.199219 L 191.484375 393.75 L 182.699219 393.75 Z M 182.699219 385.199219 " fill-opacity="1" fill-rule="nonzero"/></g></g></svg>